<svg xmlns="http://www.w3.org/2000/svg" data-name="Layer 1" viewBox="0 0 64 64"><path d="M32 2a30 30 0 1 0 30 30A30.034 30.034 0 0 0 32 2Zm0 58a28 28 0 1 1 28-28 28.032 28.032 0 0 1-28 28Z"/><path d="M56 31h2v2h-2zM6 31h2v2H6zM48.293 15.293l2-2 1.414 1.414-2 2zM13.293 50.293l2-2 1.414 1.414-2 2zM52.293 22.293l2-2 1.414 1.414-2 2zM8.293 43.293l2-2 1.414 1.414-2 2zM53.293 40.707l1.414-1.414 2 2-1.414 1.414zM8.293 21.707l1.414-1.414 2 2-1.414 1.414zM47.293 49.707l1.414-1.414 2 2-1.414 1.414zM12.293 14.707l1.414-1.414 2 2-1.414 1.414zM19.293 9.707l1.414-1.414 2 2-1.414 1.414zM41.293 10.293l2-2 1.414 1.414-2 2zM19.446 28.1a3.384 3.384 0 0 0-2.89-2.1 3.371 3.371 0 0 0-2.867 2.051 2.162 2.162 0 0 0-.467-.051C11.385 28 10 30.149 10 33h2c0-1.861.792-3 1.222-3a.571.571 0 0 1 .308.166 1 1 0 0 0 1.606-.432c.351-1.034.921-1.734 1.42-1.734.428 0 .934.545 1.288 1.389A1.018 1.018 0 0 0 18.8 30c.435.042 1.2 1.173 1.2 3h2c0-2.493-1.06-4.45-2.554-4.9Z"/><path d="M15 32h2v2h-2zM12 35h2v2h-2zM16 36h2v2h-2zM51 32a3 3 0 1 0-3 3 3 3 0 0 0 3-3Zm-4 0a1 1 0 1 1 1 1 1 1 0 0 1-1-1ZM47 26h2v2h-2zM47 36h2v2h-2zM52 31h2v2h-2zM42 31h2v2h-2zM50.121 28.463l1.415-1.414 1.414 1.414-1.414 1.415zM43.05 35.536l1.415-1.415 1.414 1.415-1.414 1.414zM50.122 35.535l1.414-1.414 1.415 1.414-1.415 1.414zM43.05 28.464l1.414-1.414 1.414 1.414-1.414 1.414zM31.642 11h2v1.953h-2zM36.547 15.858H38.5v2h-1.953zM34.696 13.39l1.381-1.381 1.414 1.414-1.38 1.381zM25.39 19.994l7.5.833.117-1.053a2.945 2.945 0 1 0-2.888-4.426A3.989 3.989 0 0 0 24.5 19a1 1 0 0 0 .89.994zm7.252-4.089a.953.953 0 1 1-.953.953.955.955 0 0 1 .953-.953zM28.5 17a1.931 1.931 0 0 1 1.254.465 2.92 2.92 0 0 0 .448 1.052l-3.5-.39A2 2 0 0 1 28.5 17zm17.207 2.707-1.414-1.414L33.285 29.3A2.951 2.951 0 0 0 32 29a3 3 0 0 0-3 3 2.951 2.951 0 0 0 .3 1.285l-2.282 2.282A3.947 3.947 0 0 0 25 35a4 4 0 1 0 4 4 3.947 3.947 0 0 0-.567-2.019l2.282-2.281A2.951 2.951 0 0 0 32 35a3 3 0 0 0 3-3 2.951 2.951 0 0 0-.3-1.285zM25 41a2 2 0 1 1 2-2 2 2 0 0 1-2 2zm7-8a1 1 0 1 1 1-1 1 1 0 0 1-1 1zM31 6h2v3h-2z"/></svg>