<svg xmlns="http://www.w3.org/2000/svg" enable-background="new 0 0 512 512" viewBox="0 0 512 512"><path d="M468.7,77.1l-59.6-6v-0.4h-4L134.6,43.7c-2.2-0.2-4.5,0.5-6.2,2s-2.6,3.7-2.6,5.9V98H97V8c0-4.4-3.6-8-8-8H44.1
	c-4.4,0-8,3.6-8,8v496c0,4.4,3.6,8,8,8H89c4.4,0,8-3.6,8-8V231.1h28.8v46.4c0,2.3,1,4.4,2.6,5.9c1.5,1.3,3.4,2.1,5.4,2.1
	c0.3,0,0.5,0,0.8,0l132.2-13.2h8.6v-0.9l118-11.8h15.6V258l59.6-6c4.1-0.4,7.2-3.9,7.2-8V85C475.9,80.9,472.8,77.5,468.7,77.1z
	 M81,496H52.1V16H81V496z M97,215.1V114h28.8v101.1H97z M393.1,85.6v158l-50.8,5.1V80.5L393.1,85.6z M259.4,72.2v184.7l-50.8,5.1
	V67.1L259.4,72.2z M141.8,60.5l50.8,5.1v198.1l-50.8,5.1V60.5z M275.4,73.8l50.8,5.1v171.3l-50.8,5.1V73.8z M459.9,236.9l-50.8,5.1
	V87.2l50.8,5.1V236.9z"/></svg>